<svg width="22" height="22" viewBox="0 0 22 22" fill="none" xmlns="http://www.w3.org/2000/svg">
<path d="M13.35 11.3299V14.0599C13.35 16.3399 12.44 17.2499 10.16 17.2499H7.44C5.17 17.2499 4.25 16.3399 4.25 14.0599V11.3299C4.25 9.0599 5.16 8.1499 7.44 8.1499H10.17C12.44 8.1499 13.35 9.0599 13.35 11.3299Z" stroke="#292D32" stroke-width="1.5" stroke-linecap="round" stroke-linejoin="round"/>
<path d="M17.25 7.43V10.16C17.25 12.44 16.34 13.35 14.06 13.35H13.35V11.33C13.35 9.06 12.44 8.15 10.16 8.15H8.14999V7.43C8.14999 5.15 9.05999 4.25 11.34 4.25H14.07C16.34 4.25 17.25 5.16 17.25 7.43Z" stroke="#292D32" stroke-width="1.5" stroke-linecap="round" stroke-linejoin="round"/>
<path d="M20.75 13.75C20.75 17.62 17.62 20.75 13.75 20.75L14.8 19" stroke="#292D32" stroke-width="1.5" stroke-linecap="round" stroke-linejoin="round"/>
<path d="M0.75 7.75C0.75 3.88 3.88 0.75 7.75 0.75L6.7 2.5" stroke="#292D32" stroke-width="1.5" stroke-linecap="round" stroke-linejoin="round"/>
</svg>
